<mxfile host="app.diagrams.net" agent="Mozilla/5.0 (X11; Linux x86_64) AppleWebKit/537.36 (KHTML, like Gecko) Chrome/139.0.0.0 Safari/537.36" version="28.2.0">
  <diagram name="Seite-1" id="Pn-jLhA2A4kyoFLc60rv">
    <mxGraphModel dx="712" dy="451" grid="1" gridSize="10" guides="1" tooltips="1" connect="1" arrows="1" fold="1" page="1" pageScale="1" pageWidth="827" pageHeight="1169" math="0" shadow="0">
      <root>
        <mxCell id="0" />
        <mxCell id="1" parent="0" />
        <mxCell id="OaHQ1mTyVZJ1lAWflLId-3" value="" style="rounded=1;whiteSpace=wrap;html=1;" vertex="1" parent="1">
          <mxGeometry x="10" y="20" width="120" height="60" as="geometry" />
        </mxCell>
        <mxCell id="OaHQ1mTyVZJ1lAWflLId-4" value="" style="rounded=1;whiteSpace=wrap;html=1;" vertex="1" parent="1">
          <mxGeometry x="250" y="20" width="120" height="60" as="geometry" />
        </mxCell>
        <mxCell id="OaHQ1mTyVZJ1lAWflLId-7" value="" style="endArrow=none;html=1;rounded=0;targetPerimeterSpacing=6;" edge="1" parent="1">
          <mxGeometry width="50" height="50" relative="1" as="geometry">
            <mxPoint x="130" y="70" as="sourcePoint" />
            <mxPoint x="250" y="70" as="targetPoint" />
          </mxGeometry>
        </mxCell>
        <mxCell id="OaHQ1mTyVZJ1lAWflLId-8" value="" style="endArrow=none;html=1;rounded=0;targetPerimeterSpacing=6;" edge="1" parent="1">
          <mxGeometry width="50" height="50" relative="1" as="geometry">
            <mxPoint x="130" y="30" as="sourcePoint" />
            <mxPoint x="250" y="30" as="targetPoint" />
          </mxGeometry>
        </mxCell>
        <mxCell id="OaHQ1mTyVZJ1lAWflLId-9" value="process 1" style="text;html=1;align=center;verticalAlign=middle;whiteSpace=wrap;rounded=0;" vertex="1" parent="1">
          <mxGeometry x="10" y="20" width="120" height="60" as="geometry" />
        </mxCell>
        <mxCell id="OaHQ1mTyVZJ1lAWflLId-10" value="process 2" style="text;html=1;align=center;verticalAlign=middle;whiteSpace=wrap;rounded=0;" vertex="1" parent="1">
          <mxGeometry x="250" y="20" width="120" height="60" as="geometry" />
        </mxCell>
        <mxCell id="OaHQ1mTyVZJ1lAWflLId-11" value="pipe" style="text;html=1;align=center;verticalAlign=middle;whiteSpace=wrap;rounded=0;" vertex="1" parent="1">
          <mxGeometry x="130" y="30" width="120" height="40" as="geometry" />
        </mxCell>
        <mxCell id="OaHQ1mTyVZJ1lAWflLId-12" value="" style="rounded=1;whiteSpace=wrap;html=1;" vertex="1" parent="1">
          <mxGeometry y="130" width="120" height="60" as="geometry" />
        </mxCell>
        <mxCell id="OaHQ1mTyVZJ1lAWflLId-13" value="" style="rounded=1;whiteSpace=wrap;html=1;" vertex="1" parent="1">
          <mxGeometry x="160" y="130" width="120" height="60" as="geometry" />
        </mxCell>
        <mxCell id="OaHQ1mTyVZJ1lAWflLId-14" value="" style="endArrow=none;html=1;rounded=0;entryX=0.001;entryY=0.854;entryDx=0;entryDy=0;entryPerimeter=0;" edge="1" parent="1">
          <mxGeometry width="50" height="50" relative="1" as="geometry">
            <mxPoint x="140" y="190" as="sourcePoint" />
            <mxPoint x="140.12" y="131.24" as="targetPoint" />
          </mxGeometry>
        </mxCell>
        <mxCell id="OaHQ1mTyVZJ1lAWflLId-18" value="" style="rounded=1;whiteSpace=wrap;html=1;" vertex="1" parent="1">
          <mxGeometry x="320" y="130" width="120" height="60" as="geometry" />
        </mxCell>
        <mxCell id="OaHQ1mTyVZJ1lAWflLId-19" value="" style="endArrow=none;html=1;rounded=0;entryX=0.001;entryY=0.854;entryDx=0;entryDy=0;entryPerimeter=0;" edge="1" parent="1">
          <mxGeometry width="50" height="50" relative="1" as="geometry">
            <mxPoint x="300" y="190" as="sourcePoint" />
            <mxPoint x="300.12" y="131.24" as="targetPoint" />
          </mxGeometry>
        </mxCell>
        <mxCell id="OaHQ1mTyVZJ1lAWflLId-20" value="" style="rounded=1;whiteSpace=wrap;html=1;" vertex="1" parent="1">
          <mxGeometry x="490" y="130" width="120" height="60" as="geometry" />
        </mxCell>
        <mxCell id="OaHQ1mTyVZJ1lAWflLId-21" value="" style="endArrow=none;html=1;rounded=0;entryX=0.001;entryY=0.854;entryDx=0;entryDy=0;entryPerimeter=0;" edge="1" parent="1">
          <mxGeometry width="50" height="50" relative="1" as="geometry">
            <mxPoint x="470" y="190" as="sourcePoint" />
            <mxPoint x="470.12" y="131.24" as="targetPoint" />
          </mxGeometry>
        </mxCell>
        <mxCell id="OaHQ1mTyVZJ1lAWflLId-22" value="" style="rounded=1;whiteSpace=wrap;html=1;" vertex="1" parent="1">
          <mxGeometry x="650" y="130" width="120" height="60" as="geometry" />
        </mxCell>
        <mxCell id="OaHQ1mTyVZJ1lAWflLId-32" value="command" style="text;html=1;align=center;verticalAlign=middle;whiteSpace=wrap;rounded=0;" vertex="1" parent="1">
          <mxGeometry y="130" width="120" height="60" as="geometry" />
        </mxCell>
        <mxCell id="OaHQ1mTyVZJ1lAWflLId-33" value="command" style="text;html=1;align=center;verticalAlign=middle;whiteSpace=wrap;rounded=0;" vertex="1" parent="1">
          <mxGeometry x="160" y="130" width="120" height="60" as="geometry" />
        </mxCell>
        <mxCell id="OaHQ1mTyVZJ1lAWflLId-34" value="command" style="text;html=1;align=center;verticalAlign=middle;whiteSpace=wrap;rounded=0;" vertex="1" parent="1">
          <mxGeometry x="320" y="130" width="120" height="60" as="geometry" />
        </mxCell>
        <mxCell id="OaHQ1mTyVZJ1lAWflLId-35" value="command" style="text;html=1;align=center;verticalAlign=middle;whiteSpace=wrap;rounded=0;" vertex="1" parent="1">
          <mxGeometry x="490" y="130" width="120" height="60" as="geometry" />
        </mxCell>
        <mxCell id="OaHQ1mTyVZJ1lAWflLId-36" value="terminal" style="text;html=1;align=center;verticalAlign=middle;whiteSpace=wrap;rounded=0;" vertex="1" parent="1">
          <mxGeometry x="650" y="130" width="120" height="60" as="geometry" />
        </mxCell>
        <mxCell id="OaHQ1mTyVZJ1lAWflLId-40" value="" style="endArrow=classic;html=1;rounded=0;exitX=0.5;exitY=0;exitDx=0;exitDy=0;entryX=0.5;entryY=0;entryDx=0;entryDy=0;strokeWidth=2;flowAnimation=0;" edge="1" parent="1" source="OaHQ1mTyVZJ1lAWflLId-32" target="OaHQ1mTyVZJ1lAWflLId-33">
          <mxGeometry relative="1" as="geometry">
            <mxPoint x="59.99999999999996" y="128.14" as="sourcePoint" />
            <mxPoint x="224.08" y="130" as="targetPoint" />
            <Array as="points">
              <mxPoint x="140" y="110" />
            </Array>
          </mxGeometry>
        </mxCell>
        <mxCell id="OaHQ1mTyVZJ1lAWflLId-41" value="STDOUT" style="edgeLabel;resizable=0;html=1;;align=center;verticalAlign=middle;" connectable="0" vertex="1" parent="OaHQ1mTyVZJ1lAWflLId-40">
          <mxGeometry relative="1" as="geometry">
            <mxPoint x="-48" y="10" as="offset" />
          </mxGeometry>
        </mxCell>
        <mxCell id="OaHQ1mTyVZJ1lAWflLId-42" value="STDIN" style="edgeLabel;resizable=0;html=1;;align=center;verticalAlign=middle;" connectable="0" vertex="1" parent="1">
          <mxGeometry x="184.08" y="120" as="geometry" />
        </mxCell>
        <mxCell id="OaHQ1mTyVZJ1lAWflLId-52" value="" style="endArrow=classic;html=1;rounded=0;exitX=0.5;exitY=1;exitDx=0;exitDy=0;entryX=0.5;entryY=1;entryDx=0;entryDy=0;strokeWidth=2;flowAnimation=0;movable=1;resizable=1;rotatable=1;deletable=1;editable=1;locked=0;connectable=1;" edge="1" parent="1" source="OaHQ1mTyVZJ1lAWflLId-33" target="OaHQ1mTyVZJ1lAWflLId-34">
          <mxGeometry relative="1" as="geometry">
            <mxPoint x="220" y="220" as="sourcePoint" />
            <mxPoint x="380" y="220" as="targetPoint" />
            <Array as="points">
              <mxPoint x="300" y="210" />
            </Array>
          </mxGeometry>
        </mxCell>
        <mxCell id="OaHQ1mTyVZJ1lAWflLId-53" value="STDOUT" style="edgeLabel;resizable=1;html=1;;align=center;verticalAlign=middle;movable=1;rotatable=1;deletable=1;editable=1;locked=0;connectable=1;" connectable="0" vertex="1" parent="OaHQ1mTyVZJ1lAWflLId-52">
          <mxGeometry relative="1" as="geometry">
            <mxPoint x="-40" y="-10" as="offset" />
          </mxGeometry>
        </mxCell>
        <mxCell id="OaHQ1mTyVZJ1lAWflLId-62" value="STDIN" style="edgeLabel;resizable=1;html=1;;align=center;verticalAlign=middle;movable=1;rotatable=1;deletable=1;editable=1;locked=0;connectable=1;" connectable="0" vertex="1" parent="1">
          <mxGeometry x="340" y="200" as="geometry" />
        </mxCell>
        <mxCell id="OaHQ1mTyVZJ1lAWflLId-68" value="" style="endArrow=classic;html=1;rounded=0;exitX=0.5;exitY=0;exitDx=0;exitDy=0;entryX=0.5;entryY=0;entryDx=0;entryDy=0;strokeWidth=2;flowAnimation=0;" edge="1" parent="1">
          <mxGeometry relative="1" as="geometry">
            <mxPoint x="380" y="130" as="sourcePoint" />
            <mxPoint x="540" y="130" as="targetPoint" />
            <Array as="points">
              <mxPoint x="460" y="110" />
            </Array>
          </mxGeometry>
        </mxCell>
        <mxCell id="OaHQ1mTyVZJ1lAWflLId-69" value="STDOUT" style="edgeLabel;resizable=0;html=1;;align=center;verticalAlign=middle;" connectable="0" vertex="1" parent="OaHQ1mTyVZJ1lAWflLId-68">
          <mxGeometry relative="1" as="geometry">
            <mxPoint x="-48" y="10" as="offset" />
          </mxGeometry>
        </mxCell>
        <mxCell id="OaHQ1mTyVZJ1lAWflLId-70" value="STDIN" style="edgeLabel;resizable=0;html=1;;align=center;verticalAlign=middle;" connectable="0" vertex="1" parent="1">
          <mxGeometry x="504.08000000000004" y="120" as="geometry" />
        </mxCell>
        <mxCell id="OaHQ1mTyVZJ1lAWflLId-71" value="" style="endArrow=classic;html=1;rounded=0;exitX=0.5;exitY=1;exitDx=0;exitDy=0;entryX=0.5;entryY=1;entryDx=0;entryDy=0;strokeWidth=2;flowAnimation=0;movable=1;resizable=1;rotatable=1;deletable=1;editable=1;locked=0;connectable=1;" edge="1" parent="1">
          <mxGeometry relative="1" as="geometry">
            <mxPoint x="540" y="190" as="sourcePoint" />
            <mxPoint x="700" y="190" as="targetPoint" />
            <Array as="points">
              <mxPoint x="620" y="210" />
            </Array>
          </mxGeometry>
        </mxCell>
        <mxCell id="OaHQ1mTyVZJ1lAWflLId-72" value="STDOUT" style="edgeLabel;resizable=1;html=1;;align=center;verticalAlign=middle;movable=1;rotatable=1;deletable=1;editable=1;locked=0;connectable=1;" connectable="0" vertex="1" parent="OaHQ1mTyVZJ1lAWflLId-71">
          <mxGeometry relative="1" as="geometry">
            <mxPoint x="-40" y="-10" as="offset" />
          </mxGeometry>
        </mxCell>
        <mxCell id="OaHQ1mTyVZJ1lAWflLId-81" style="edgeStyle=orthogonalEdgeStyle;rounded=0;orthogonalLoop=1;jettySize=auto;html=1;entryX=0;entryY=0.5;entryDx=0;entryDy=0;strokeWidth=2;" edge="1" parent="1" source="OaHQ1mTyVZJ1lAWflLId-74" target="OaHQ1mTyVZJ1lAWflLId-75">
          <mxGeometry relative="1" as="geometry" />
        </mxCell>
        <mxCell id="OaHQ1mTyVZJ1lAWflLId-74" value="commands" style="text;html=1;align=center;verticalAlign=middle;whiteSpace=wrap;rounded=0;" vertex="1" parent="1">
          <mxGeometry y="220" width="80" height="40" as="geometry" />
        </mxCell>
        <mxCell id="OaHQ1mTyVZJ1lAWflLId-82" style="edgeStyle=orthogonalEdgeStyle;rounded=0;orthogonalLoop=1;jettySize=auto;html=1;strokeWidth=2;" edge="1" parent="1" source="OaHQ1mTyVZJ1lAWflLId-75">
          <mxGeometry relative="1" as="geometry">
            <mxPoint x="280" y="240" as="targetPoint" />
          </mxGeometry>
        </mxCell>
        <mxCell id="OaHQ1mTyVZJ1lAWflLId-75" value="command[0]" style="rounded=1;whiteSpace=wrap;html=1;" vertex="1" parent="1">
          <mxGeometry x="120" y="220" width="120" height="40" as="geometry" />
        </mxCell>
        <mxCell id="OaHQ1mTyVZJ1lAWflLId-83" style="edgeStyle=orthogonalEdgeStyle;rounded=0;orthogonalLoop=1;jettySize=auto;html=1;entryX=0;entryY=0.5;entryDx=0;entryDy=0;" edge="1" parent="1" source="OaHQ1mTyVZJ1lAWflLId-76" target="OaHQ1mTyVZJ1lAWflLId-79">
          <mxGeometry relative="1" as="geometry" />
        </mxCell>
        <mxCell id="OaHQ1mTyVZJ1lAWflLId-76" value="command[1]" style="rounded=1;whiteSpace=wrap;html=1;" vertex="1" parent="1">
          <mxGeometry x="120" y="270" width="120" height="40" as="geometry" />
        </mxCell>
        <mxCell id="OaHQ1mTyVZJ1lAWflLId-77" value="&lt;div style=&quot;text-align: left;&quot;&gt;&lt;span style=&quot;background-color: transparent; color: light-dark(rgb(0, 0, 0), rgb(255, 255, 255));&quot;&gt;[0]&amp;nbsp;&lt;span style=&quot;white-space: pre;&quot;&gt;&#x9;&lt;/span&gt;&amp;nbsp; &amp;nbsp; &amp;nbsp;&lt;/span&gt;&lt;span style=&quot;background-color: transparent; color: light-dark(rgb(0, 0, 0), rgb(255, 255, 255));&quot;&gt;echo&lt;/span&gt;&lt;/div&gt;&lt;div&gt;[1]&lt;span style=&quot;white-space: pre;&quot;&gt;&#x9;&lt;/span&gt;foo bar baz&lt;/div&gt;" style="rounded=1;whiteSpace=wrap;html=1;" vertex="1" parent="1">
          <mxGeometry x="280" y="220" width="120" height="40" as="geometry" />
        </mxCell>
        <mxCell id="OaHQ1mTyVZJ1lAWflLId-79" value="&lt;div style=&quot;&quot;&gt;&lt;span style=&quot;background-color: transparent; color: light-dark(rgb(0, 0, 0), rgb(255, 255, 255));&quot;&gt;[0]&lt;span style=&quot;white-space: pre;&quot;&gt;&#x9;&lt;/span&gt;&amp;nbsp;wc&amp;nbsp; &amp;nbsp; &amp;nbsp; &amp;nbsp; &amp;nbsp; &amp;nbsp;&lt;/span&gt;&lt;/div&gt;&lt;div style=&quot;&quot;&gt;&lt;span style=&quot;background-color: transparent; color: light-dark(rgb(0, 0, 0), rgb(255, 255, 255));&quot;&gt;[1]&amp;nbsp; &amp;nbsp; &amp;nbsp;&lt;/span&gt;&lt;span style=&quot;background-color: transparent; color: light-dark(rgb(0, 0, 0), rgb(255, 255, 255));&quot;&gt;-w&amp;nbsp; &amp;nbsp; &amp;nbsp; &amp;nbsp; &amp;nbsp; &amp;nbsp;&amp;nbsp;&lt;/span&gt;&lt;/div&gt;" style="rounded=1;whiteSpace=wrap;html=1;align=center;" vertex="1" parent="1">
          <mxGeometry x="280" y="270" width="120" height="40" as="geometry" />
        </mxCell>
        <mxCell id="OaHQ1mTyVZJ1lAWflLId-84" value="tr" style="rounded=1;whiteSpace=wrap;html=1;" vertex="1" parent="1">
          <mxGeometry x="235" y="350" width="80" height="40" as="geometry" />
        </mxCell>
        <mxCell id="OaHQ1mTyVZJ1lAWflLId-85" value="" style="endArrow=classic;html=1;rounded=0;" edge="1" parent="1">
          <mxGeometry relative="1" as="geometry">
            <mxPoint x="315" y="369.67" as="sourcePoint" />
            <mxPoint x="415" y="369.67" as="targetPoint" />
          </mxGeometry>
        </mxCell>
        <mxCell id="OaHQ1mTyVZJ1lAWflLId-86" value="STDOUT" style="edgeLabel;resizable=0;html=1;;align=center;verticalAlign=middle;" connectable="0" vertex="1" parent="OaHQ1mTyVZJ1lAWflLId-85">
          <mxGeometry relative="1" as="geometry" />
        </mxCell>
        <mxCell id="OaHQ1mTyVZJ1lAWflLId-88" value="" style="endArrow=classic;html=1;rounded=0;" edge="1" parent="1">
          <mxGeometry relative="1" as="geometry">
            <mxPoint x="135" y="369.8" as="sourcePoint" />
            <mxPoint x="235" y="369.8" as="targetPoint" />
            <Array as="points">
              <mxPoint x="175" y="369.8" />
            </Array>
          </mxGeometry>
        </mxCell>
        <mxCell id="OaHQ1mTyVZJ1lAWflLId-89" value="STDIN" style="edgeLabel;resizable=0;html=1;;align=center;verticalAlign=middle;" connectable="0" vertex="1" parent="OaHQ1mTyVZJ1lAWflLId-88">
          <mxGeometry relative="1" as="geometry" />
        </mxCell>
        <mxCell id="OaHQ1mTyVZJ1lAWflLId-92" value="" style="endArrow=none;html=1;rounded=0;" edge="1" parent="1">
          <mxGeometry width="50" height="50" relative="1" as="geometry">
            <mxPoint x="25" y="339.67" as="sourcePoint" />
            <mxPoint x="105" y="339.67" as="targetPoint" />
          </mxGeometry>
        </mxCell>
        <mxCell id="OaHQ1mTyVZJ1lAWflLId-93" value="" style="endArrow=none;html=1;rounded=0;" edge="1" parent="1">
          <mxGeometry width="50" height="50" relative="1" as="geometry">
            <mxPoint x="25" y="399.66999999999996" as="sourcePoint" />
            <mxPoint x="105" y="399.66999999999996" as="targetPoint" />
          </mxGeometry>
        </mxCell>
        <mxCell id="OaHQ1mTyVZJ1lAWflLId-94" value="output from&lt;div&gt;test.txt&lt;/div&gt;" style="text;html=1;align=center;verticalAlign=middle;whiteSpace=wrap;rounded=0;" vertex="1" parent="1">
          <mxGeometry x="25" y="369.67" width="80" height="30" as="geometry" />
        </mxCell>
        <mxCell id="OaHQ1mTyVZJ1lAWflLId-95" value="&quot;Hello World&quot;" style="text;html=1;align=center;verticalAlign=middle;whiteSpace=wrap;rounded=0;" vertex="1" parent="1">
          <mxGeometry x="25" y="320" width="80" height="30" as="geometry" />
        </mxCell>
        <mxCell id="OaHQ1mTyVZJ1lAWflLId-101" value="" style="endArrow=classic;html=1;rounded=0;exitX=1;exitY=0.5;exitDx=0;exitDy=0;dashed=1;" edge="1" parent="1" source="OaHQ1mTyVZJ1lAWflLId-95">
          <mxGeometry relative="1" as="geometry">
            <mxPoint x="55" y="380" as="sourcePoint" />
            <mxPoint x="135" y="370" as="targetPoint" />
          </mxGeometry>
        </mxCell>
        <mxCell id="OaHQ1mTyVZJ1lAWflLId-102" value="&lt;font style=&quot;font-size: 8px;&quot;&gt;no redirection&lt;/font&gt;" style="edgeLabel;resizable=0;html=1;;align=center;verticalAlign=middle;" connectable="0" vertex="1" parent="OaHQ1mTyVZJ1lAWflLId-101">
          <mxGeometry relative="1" as="geometry" />
        </mxCell>
        <mxCell id="OaHQ1mTyVZJ1lAWflLId-103" value="" style="endArrow=classic;html=1;rounded=0;exitX=1;exitY=0.75;exitDx=0;exitDy=0;" edge="1" parent="1" source="OaHQ1mTyVZJ1lAWflLId-94">
          <mxGeometry relative="1" as="geometry">
            <mxPoint x="55" y="380" as="sourcePoint" />
            <mxPoint x="135" y="370" as="targetPoint" />
          </mxGeometry>
        </mxCell>
        <mxCell id="OaHQ1mTyVZJ1lAWflLId-104" value="redirection" style="edgeLabel;resizable=0;html=1;;align=center;verticalAlign=middle;fontSize=8;" connectable="0" vertex="1" parent="OaHQ1mTyVZJ1lAWflLId-103">
          <mxGeometry relative="1" as="geometry">
            <mxPoint x="5" y="4" as="offset" />
          </mxGeometry>
        </mxCell>
        <mxCell id="OaHQ1mTyVZJ1lAWflLId-111" value="output from command" style="rounded=1;whiteSpace=wrap;html=1;" vertex="1" parent="1">
          <mxGeometry x="115" y="490" width="120" height="60" as="geometry" />
        </mxCell>
        <mxCell id="OaHQ1mTyVZJ1lAWflLId-112" value="" style="endArrow=classic;html=1;rounded=0;" edge="1" parent="1">
          <mxGeometry relative="1" as="geometry">
            <mxPoint x="240" y="519.83" as="sourcePoint" />
            <mxPoint x="340" y="519.83" as="targetPoint" />
          </mxGeometry>
        </mxCell>
        <mxCell id="OaHQ1mTyVZJ1lAWflLId-113" value="STDOUT" style="edgeLabel;resizable=0;html=1;;align=center;verticalAlign=middle;" connectable="0" vertex="1" parent="OaHQ1mTyVZJ1lAWflLId-112">
          <mxGeometry relative="1" as="geometry" />
        </mxCell>
        <mxCell id="OaHQ1mTyVZJ1lAWflLId-114" value="" style="endArrow=none;html=1;rounded=0;" edge="1" parent="1">
          <mxGeometry width="50" height="50" relative="1" as="geometry">
            <mxPoint x="470" y="490" as="sourcePoint" />
            <mxPoint x="390" y="490" as="targetPoint" />
          </mxGeometry>
        </mxCell>
        <mxCell id="OaHQ1mTyVZJ1lAWflLId-115" value="" style="endArrow=none;html=1;rounded=0;" edge="1" parent="1">
          <mxGeometry width="50" height="50" relative="1" as="geometry">
            <mxPoint x="470" y="550" as="sourcePoint" />
            <mxPoint x="390" y="550" as="targetPoint" />
          </mxGeometry>
        </mxCell>
        <mxCell id="OaHQ1mTyVZJ1lAWflLId-117" value="append/truncate to a file" style="text;html=1;align=center;verticalAlign=middle;whiteSpace=wrap;rounded=0;" vertex="1" parent="1">
          <mxGeometry x="390" y="460" width="80" height="30" as="geometry" />
        </mxCell>
        <mxCell id="OaHQ1mTyVZJ1lAWflLId-118" value="terminal/XTerm" style="text;html=1;align=center;verticalAlign=middle;whiteSpace=wrap;rounded=0;" vertex="1" parent="1">
          <mxGeometry x="390" y="520" width="80" height="30" as="geometry" />
        </mxCell>
        <mxCell id="OaHQ1mTyVZJ1lAWflLId-119" value="" style="endArrow=classic;html=1;rounded=0;entryX=0;entryY=1;entryDx=0;entryDy=0;dashed=1;" edge="1" parent="1" target="OaHQ1mTyVZJ1lAWflLId-118">
          <mxGeometry width="50" height="50" relative="1" as="geometry">
            <mxPoint x="340" y="530" as="sourcePoint" />
            <mxPoint x="390" y="510" as="targetPoint" />
          </mxGeometry>
        </mxCell>
        <mxCell id="OaHQ1mTyVZJ1lAWflLId-120" value="" style="endArrow=classic;html=1;rounded=0;entryX=0;entryY=1;entryDx=0;entryDy=0;" edge="1" parent="1" target="OaHQ1mTyVZJ1lAWflLId-117">
          <mxGeometry relative="1" as="geometry">
            <mxPoint x="340" y="510" as="sourcePoint" />
            <mxPoint x="400" y="500" as="targetPoint" />
          </mxGeometry>
        </mxCell>
        <mxCell id="OaHQ1mTyVZJ1lAWflLId-121" value="&lt;font style=&quot;font-size: 8px;&quot;&gt;redirection&lt;/font&gt;" style="edgeLabel;resizable=0;html=1;;align=center;verticalAlign=middle;" connectable="0" vertex="1" parent="OaHQ1mTyVZJ1lAWflLId-120">
          <mxGeometry relative="1" as="geometry">
            <mxPoint x="-2" y="1" as="offset" />
          </mxGeometry>
        </mxCell>
        <mxCell id="OaHQ1mTyVZJ1lAWflLId-122" value="&lt;span style=&quot;color: rgb(0, 0, 0); font-family: Helvetica; font-size: 8px; font-style: normal; font-variant-ligatures: normal; font-variant-caps: normal; font-weight: 400; letter-spacing: normal; orphans: 2; text-align: center; text-indent: 0px; text-transform: none; widows: 2; word-spacing: 0px; -webkit-text-stroke-width: 0px; white-space: nowrap; background-color: rgb(255, 255, 255); text-decoration-thickness: initial; text-decoration-style: initial; text-decoration-color: initial; float: none; display: inline !important;&quot;&gt;no redirection&lt;/span&gt;" style="text;whiteSpace=wrap;html=1;" vertex="1" parent="1">
          <mxGeometry x="332" y="523" width="48" height="27" as="geometry" />
        </mxCell>
        <mxCell id="OaHQ1mTyVZJ1lAWflLId-123" value="" style="endArrow=classic;html=1;rounded=0;" edge="1" parent="1">
          <mxGeometry relative="1" as="geometry">
            <mxPoint x="10" y="520" as="sourcePoint" />
            <mxPoint x="110" y="520" as="targetPoint" />
          </mxGeometry>
        </mxCell>
        <mxCell id="OaHQ1mTyVZJ1lAWflLId-124" value="STDIN" style="edgeLabel;resizable=0;html=1;;align=center;verticalAlign=middle;" connectable="0" vertex="1" parent="OaHQ1mTyVZJ1lAWflLId-123">
          <mxGeometry relative="1" as="geometry" />
        </mxCell>
      </root>
    </mxGraphModel>
  </diagram>
</mxfile>
